<svg width="106" height="249" viewBox="0 0 106 249" fill="none" xmlns="http://www.w3.org/2000/svg">
<path d="M0.251365 239.361C0.0308708 238.855 0.262613 238.265 0.768976 238.045L9.02061 234.452C9.52696 234.231 10.1162 234.463 10.3367 234.969C10.5572 235.476 10.3254 236.065 9.81908 236.286L2.4843 239.479L5.67819 246.814C5.89868 247.321 5.66694 247.91 5.16058 248.13C4.65422 248.351 4.06499 248.119 3.8445 247.613L0.251365 239.361ZM92.3236 118.793L91.3678 119.087L92.3236 118.793ZM21.3268 99.4219L20.3978 99.7919L21.3268 99.4219ZM103.211 79.0306L102.237 78.8061L103.211 79.0306ZM19.1696 149.882L18.239 149.516L19.1696 149.882ZM1.53422 238.031C3.58861 238.839 5.52308 239.535 7.34334 240.125L6.72673 242.028C4.86329 241.424 2.89018 240.714 0.802203 239.892L1.53422 238.031ZM19.3158 242.679C24.5398 243.003 27.914 241.771 30.0455 239.576L31.4804 240.97C28.8078 243.722 24.7739 245.021 19.1919 244.675L19.3158 242.679ZM33.4872 228.683C33.5454 225.095 33.0562 220.982 32.2026 216.526L34.1669 216.15C35.034 220.677 35.5482 224.938 35.4869 228.716L33.4872 228.683ZM29.338 204.483C28.2685 200.561 27.0778 196.55 25.8712 192.55L27.786 191.973C28.9936 195.976 30.1907 200.008 31.2675 203.957L29.338 204.483ZM22.2873 180.608C21.0575 176.395 19.9368 172.319 19.0685 168.525L21.0181 168.079C21.8735 171.816 22.9818 175.849 24.2072 180.048L22.2873 180.608ZM17.2696 155.98C17.2453 153.533 17.5235 151.335 18.239 149.516L20.1002 150.248C19.514 151.738 19.2466 153.653 19.2695 155.96L17.2696 155.98ZM18.239 149.516C19.0403 147.478 20.0571 145.7 21.2625 144.153L22.84 145.382C21.7583 146.77 20.8348 148.38 20.1002 150.248L18.239 149.516ZM31.2172 137.193C34.8111 135.891 38.8239 135.243 43.0062 134.981L43.1312 136.977C39.0625 137.232 35.2534 137.858 31.8985 139.073L31.2172 137.193ZM54.8795 135.039C58.8525 135.251 62.8423 135.593 66.6342 135.876L66.4857 137.87C62.6636 137.586 58.7179 137.247 54.7727 137.036L54.8795 135.039ZM78.2764 136.354C82.913 136.259 86.63 135.624 89.1209 134.052L90.1884 135.743C87.2095 137.623 83.0196 138.257 78.3172 138.353L78.2764 136.354ZM92.6015 124.686C92.4185 123.058 92.0178 121.201 91.3678 119.087L93.2795 118.499C93.9572 120.704 94.3891 122.684 94.589 124.463L92.6015 124.686ZM91.3678 119.087C90.738 117.039 90.0826 115.06 89.4035 113.149L91.288 112.48C91.977 114.418 92.6415 116.424 93.2795 118.499L91.3678 119.087ZM84.6669 101.646C82.7686 97.6539 80.7557 94.0531 78.6601 90.8199L80.3384 89.7321C82.4847 93.0434 84.5397 96.7212 86.4731 100.788L84.6669 101.646ZM71.1264 81.0624C68.0887 77.7913 64.9669 75.1433 61.8389 73.0571L62.9486 71.3932C66.2157 73.5722 69.4555 76.3241 72.5919 79.7015L71.1264 81.0624ZM50.8093 67.9007C46.588 66.7309 42.5246 66.5032 38.8171 67.0547L38.5228 65.0765C42.5215 64.4817 46.8671 64.7329 51.3434 65.9733L50.8093 67.9007ZM27.8782 71.6809C24.7639 74.1468 22.414 77.4415 21.1373 81.3375L19.2367 80.7147C20.6383 76.4375 23.2217 72.817 26.6366 70.1129L27.8782 71.6809ZM20.5323 93.2149C20.8909 95.0986 21.4582 97.0489 22.2559 99.0519L20.3978 99.7919C19.5556 97.677 18.9512 95.6044 18.5676 93.5889L20.5323 93.2149ZM22.2559 99.0519C22.8008 100.42 23.7401 101.915 25.0429 103.464L23.5123 104.752C22.1159 103.091 21.0437 101.414 20.3978 99.7919L22.2559 99.0519ZM33.2447 110.537C36.1127 112.437 39.3857 114.185 42.9192 115.624L42.1652 117.476C38.5094 115.988 35.1189 114.178 32.1403 112.205L33.2447 110.537ZM53.3981 118.716C56.9565 119.373 60.6096 119.645 64.2484 119.418L64.3734 121.414C60.553 121.653 56.735 121.366 53.0348 120.682L53.3981 118.716ZM74.8237 117.19C78.0703 115.967 81.2215 114.216 84.1926 111.84L85.4419 113.401C82.3037 115.912 78.9681 117.766 75.5288 119.062L74.8237 117.19ZM91.6175 103.966C93.594 101.241 95.425 98.094 97.0689 94.479L98.8895 95.3069C97.195 99.0332 95.2982 102.298 93.2365 105.141L91.6175 103.966ZM100.846 84.1626C101.343 82.4527 101.808 80.668 102.237 78.8061L104.186 79.2552C103.749 81.1523 103.275 82.9736 102.766 84.7212L100.846 84.1626ZM102.237 78.8061C102.661 76.9652 103.005 75.1674 103.273 73.4118L105.251 73.7139C104.974 75.5204 104.621 77.3672 104.186 79.2552L102.237 78.8061ZM103.995 62.5073C103.895 58.6871 103.408 55.0984 102.594 51.7271L104.538 51.2577C105.386 54.7679 105.891 58.4966 105.994 62.4553L103.995 62.5073ZM98.8782 41.5242C97.2365 38.2219 95.2569 35.1713 93.0226 32.3545L94.5895 31.1116C96.9035 34.0288 98.9604 37.1967 100.669 40.6339L98.8782 41.5242ZM85.4856 24.4519C82.7271 22.0124 79.7887 19.8054 76.7642 17.8119L77.8649 16.142C80.9581 18.1808 83.973 20.4443 86.8106 22.9537L85.4856 24.4519ZM67.251 12.3119C63.8367 10.579 60.4409 9.08361 57.1916 7.79928L57.9268 5.9393C61.226 7.24336 64.6793 8.76382 68.1561 10.5284L67.251 12.3119ZM46.7728 4.17012C44.849 3.58502 43.0716 3.0894 41.4854 2.67396L41.9922 0.739216C43.6012 1.16064 45.4037 1.66328 47.3547 2.25664L46.7728 4.17012Z" fill="#FD5956"/>
</svg>
