<svg width="808" height="413" viewBox="0 -30 708 450" xmlns="http://www.w3.org/2000/svg">
<path d="M7.29289 260.537C7.68342 260.146 8.31658 260.146 8.70711 260.537L15.0711 266.901C15.4616 267.292 15.4616 267.925 15.0711 268.315C14.6805 268.706 14.0474 268.706 13.6569 268.315L8 262.658L2.34315 268.315C1.95262 268.706 1.31946 268.706 0.928932 268.315C0.538408 267.925 0.538408 267.292 0.928932 266.901L7.29289 260.537ZM483.216 395.37L482.591 394.589L483.216 395.37ZM457.169 155.144L457.855 155.872L457.169 155.144ZM617.37 380.853L617.222 379.864L617.37 380.853ZM300.89 209.195V210.195V209.195ZM9 261.244C9 263.384 9.01711 265.481 9.05108 267.537L7.05135 267.57C7.0172 265.503 7 263.395 7 261.244H9ZM9.45504 279.368C9.67971 283.598 9.98625 287.624 10.3717 291.45L8.38175 291.651C7.99292 287.79 7.68407 283.734 7.45785 279.474L9.45504 279.368ZM11.8891 303.139C12.5575 307.264 13.3366 311.107 14.2209 314.679L12.2795 315.16C11.3808 311.529 10.5911 307.632 9.91483 303.459L11.8891 303.139ZM17.7388 326.109C19.2548 330.107 20.9491 333.635 22.8066 336.725L21.0925 337.755C19.1657 334.55 17.4213 330.913 15.8687 326.818L17.7388 326.109ZM30.0575 345.905C33.0212 348.706 36.2511 350.805 39.7209 352.278L38.9395 354.119C35.2457 352.551 31.8162 350.319 28.6838 347.359L30.0575 345.905ZM51.045 354.906C54.735 355.161 58.6282 354.932 62.7048 354.263L63.0285 356.237C58.825 356.926 54.7751 357.169 50.9068 356.901L51.045 354.906ZM74.1739 351.415C77.7766 350.248 81.4837 348.817 85.2827 347.149L86.0865 348.98C82.2357 350.671 78.4656 352.127 74.7902 353.318L74.1739 351.415ZM96.0291 341.951C99.4541 340.153 102.937 338.2 106.469 336.111L107.487 337.832C103.929 339.936 100.417 341.906 96.9588 343.722L96.0291 341.951ZM116.661 329.807C119.962 327.683 123.296 325.461 126.657 323.159L127.788 324.808C124.413 327.121 121.063 329.353 117.744 331.489L116.661 329.807ZM136.486 316.257C139.686 313.959 142.904 311.602 146.135 309.199L147.329 310.804C144.09 313.213 140.863 315.576 137.652 317.882L136.486 316.257ZM155.707 301.98C158.871 299.563 162.042 297.115 165.215 294.646L166.443 296.224C163.267 298.696 160.091 301.149 156.921 303.569L155.707 301.98ZM174.668 287.242C177.811 284.766 180.95 282.283 184.082 279.801L185.324 281.369C182.192 283.851 179.051 286.336 175.906 288.813L174.668 287.242ZM193.5 272.336C196.659 269.833 199.804 267.345 202.932 264.884L204.169 266.455C201.044 268.915 197.9 271.401 194.742 273.903L193.5 272.336ZM212.387 257.487C215.579 255.008 218.746 252.57 221.882 250.187L223.092 251.779C219.962 254.158 216.801 256.591 213.613 259.066L212.387 257.487ZM231.529 242.966C234.836 240.533 238.1 238.179 241.315 235.921L242.464 237.557C239.263 239.806 236.011 242.151 232.715 244.577L231.529 242.966ZM251.281 229.136C254.76 226.85 258.169 224.706 261.497 222.727L262.519 224.447C259.221 226.408 255.837 228.536 252.379 230.808L251.281 229.136ZM272.059 216.888C275.867 214.959 279.546 213.308 283.077 211.98L283.781 213.852C280.331 215.15 276.719 216.769 272.963 218.672L272.059 216.888ZM294.831 208.713C296.921 208.373 298.943 208.195 300.89 208.195V210.195C299.064 210.195 297.15 210.362 295.152 210.687L294.831 208.713ZM300.89 208.195C302.974 208.195 305.009 208.279 306.998 208.445L306.832 210.438C304.9 210.277 302.92 210.195 300.89 210.195V208.195ZM318.809 210.5C322.758 211.571 326.494 213 330.033 214.748L329.148 216.542C325.722 214.849 322.108 213.467 318.285 212.43L318.809 210.5ZM340.265 221.058C343.438 223.434 346.426 226.095 349.249 229L347.814 230.394C345.058 227.557 342.148 224.967 339.066 222.659L340.265 221.058ZM357.016 238.117C359.373 241.249 361.602 244.563 363.717 248.03L362.01 249.072C359.924 245.654 357.732 242.394 355.418 239.32L357.016 238.117ZM369.537 258.464C371.324 261.955 373.025 265.555 374.653 269.238L372.823 270.046C371.209 266.393 369.524 262.829 367.757 259.376L369.537 258.464ZM379.214 280.227C380.648 283.894 382.026 287.616 383.358 291.373L381.473 292.041C380.147 288.302 378.777 284.599 377.351 280.955L379.214 280.227ZM387.194 302.623C388.433 306.388 389.637 310.166 390.818 313.936L388.909 314.533C387.731 310.77 386.529 307.001 385.294 303.248L387.194 302.623ZM394.321 325.281C395.49 329.103 396.643 332.891 397.794 336.63L395.883 337.218C394.731 333.478 393.576 329.684 392.408 325.866L394.321 325.281ZM401.338 347.951C402.569 351.796 403.809 355.555 405.07 359.2L403.18 359.854C401.913 356.19 400.668 352.417 399.433 348.561L401.338 347.951ZM409.14 370.303C410.627 374.103 412.158 377.721 413.751 381.12L411.94 381.968C410.325 378.522 408.777 374.863 407.278 371.032L409.14 370.303ZM419.281 391.523C421.451 395.073 423.741 398.213 426.184 400.878L424.71 402.23C422.161 399.449 419.796 396.2 417.575 392.567L419.281 391.523ZM435.148 408.029C438.471 409.795 442.067 410.815 446.005 410.977L445.922 412.975C441.677 412.8 437.789 411.697 434.21 409.796L435.148 408.029ZM457.365 409.298C460.655 408.259 464.159 406.726 467.899 404.648L468.87 406.396C465.034 408.528 461.406 410.119 457.967 411.205L457.365 409.298ZM477.729 398.306C479.313 397.153 480.934 395.915 482.591 394.589L483.84 396.151C482.161 397.494 480.516 398.751 478.906 399.923L477.729 398.306ZM482.591 394.589C484.213 393.293 485.813 391.996 487.392 390.701L488.661 392.247C487.075 393.548 485.468 394.849 483.84 396.151L482.591 394.589ZM496.62 382.933C499.711 380.262 502.714 377.595 505.632 374.931L506.981 376.408C504.049 379.084 501.032 381.764 497.928 384.446L496.62 382.933ZM514.407 366.687C517.354 363.835 520.205 360.988 522.96 358.149L524.396 359.542C521.625 362.397 518.76 365.258 515.797 368.124L514.407 366.687ZM531.148 349.431C533.923 346.373 536.59 343.325 539.151 340.289L540.68 341.578C538.103 344.634 535.42 347.7 532.628 350.775L531.148 349.431ZM546.674 331.015C549.205 327.766 551.616 324.532 553.909 321.315L555.538 322.476C553.228 325.716 550.8 328.973 548.251 332.244L546.674 331.015ZM560.688 311.337C562.898 307.916 564.975 304.517 566.924 301.143L568.656 302.144C566.69 305.547 564.595 308.974 562.368 312.422L560.688 311.337ZM572.671 290.55C574.536 286.875 576.248 283.234 577.814 279.63L579.648 280.427C578.066 284.068 576.337 287.745 574.455 291.454L572.671 290.55ZM582.247 268.465C583.633 264.611 584.85 260.806 585.906 257.054L587.831 257.596C586.762 261.394 585.531 265.244 584.129 269.142L582.247 268.465ZM588.708 245.412C589.509 241.395 590.123 237.449 590.559 233.579L592.546 233.803C592.104 237.73 591.482 241.732 590.669 245.804L588.708 245.412ZM591.356 221.621C591.436 217.523 591.31 213.525 590.992 209.638L592.986 209.475C593.309 213.431 593.436 217.495 593.355 221.66L591.356 221.621ZM589.37 197.761C588.592 193.747 587.598 189.875 586.405 186.157L588.31 185.546C589.527 189.341 590.541 193.29 591.333 197.38L589.37 197.761ZM582.041 175.022C580.318 171.345 578.382 167.861 576.255 164.583L577.933 163.495C580.11 166.851 582.09 170.415 583.852 174.173L582.041 175.022ZM569.067 155.085C566.4 152.055 563.542 149.276 560.52 146.763L561.798 145.225C564.902 147.805 567.834 150.657 570.568 153.763L569.067 155.085ZM550.77 139.917C547.328 137.902 543.738 136.189 540.03 134.797L540.733 132.924C544.548 134.357 548.241 136.119 551.781 138.191L550.77 139.917ZM528.574 131.599C524.707 130.875 520.753 130.482 516.739 130.437L516.761 128.437C520.891 128.483 524.961 128.888 528.942 129.633L528.574 131.599ZM504.851 131.316C501.015 131.924 497.15 132.852 493.277 134.115L492.657 132.214C496.628 130.919 500.596 129.966 504.537 129.34L504.851 131.316ZM482.26 138.626C478.802 140.337 475.354 142.328 471.935 144.61L470.825 142.946C474.314 140.618 477.835 138.583 481.373 136.833L482.26 138.626ZM462.395 151.815C460.872 153.105 459.358 154.457 457.855 155.872L456.484 154.416C458.012 152.977 459.552 151.602 461.102 150.289L462.395 151.815ZM457.855 155.872C456.493 157.155 455.152 158.619 453.842 160.254L452.281 159.003C453.643 157.304 455.046 155.77 456.484 154.416L457.855 155.872ZM447.314 170.262C445.516 173.588 443.824 177.247 442.263 181.192L440.404 180.456C441.991 176.446 443.715 172.714 445.554 169.311L447.314 170.262ZM438.341 192.649C437.236 196.404 436.243 200.33 435.377 204.397L433.421 203.98C434.297 199.865 435.303 195.89 436.422 192.084L438.341 192.649ZM433.268 216.305C432.709 220.236 432.267 224.26 431.953 228.353L429.959 228.2C430.276 224.064 430.723 219.997 431.288 216.023L433.268 216.305ZM431.416 240.467C431.366 244.473 431.444 248.52 431.658 252.59L429.66 252.695C429.444 248.581 429.366 244.49 429.416 240.443L431.416 240.467ZM432.696 264.657C433.176 268.648 433.795 272.642 434.562 276.618L432.598 276.997C431.822 272.972 431.196 268.933 430.711 264.896L432.696 264.657ZM437.296 288.408C438.354 292.293 439.567 296.144 440.941 299.942L439.06 300.622C437.667 296.771 436.438 292.869 435.366 288.933L437.296 288.408ZM445.541 311.121C447.233 314.767 449.093 318.343 451.129 321.832L449.401 322.84C447.333 319.295 445.444 315.663 443.727 311.963L445.541 311.121ZM457.721 331.949C460.069 335.185 462.594 338.321 465.305 341.341L463.817 342.677C461.058 339.605 458.489 336.414 456.102 333.124L457.721 331.949ZM473.834 349.885C476.783 352.541 479.91 355.076 483.222 357.477L482.048 359.096C478.679 356.654 475.497 354.074 472.495 351.371L473.834 349.885ZM493.35 364.047C496.76 366.019 500.335 367.864 504.081 369.569L503.252 371.39C499.448 369.658 495.815 367.783 492.349 365.778L493.35 364.047ZM515.276 374.059C518.975 375.354 522.819 376.526 526.814 377.566L526.31 379.501C522.264 378.448 518.366 377.261 514.615 375.946L515.276 374.059ZM538.604 380.161C542.472 380.865 546.467 381.454 550.59 381.922L550.365 383.91C546.198 383.437 542.159 382.841 538.246 382.128L538.604 380.161ZM562.75 382.925C566.66 383.131 570.676 383.235 574.799 383.233L574.8 385.233C570.642 385.235 566.591 385.13 562.645 384.922L562.75 382.925ZM586.868 382.932C590.846 382.739 594.918 382.453 599.084 382.069L599.267 384.061C595.073 384.447 590.973 384.736 586.964 384.93L586.868 382.932ZM611.05 380.731C613.086 380.464 615.143 380.175 617.222 379.864L617.518 381.842C615.428 382.155 613.358 382.446 611.309 382.714L611.05 380.731ZM617.222 379.864C619.35 379.545 621.402 379.178 623.378 378.765L623.788 380.722C621.772 381.144 619.683 381.518 617.518 381.842L617.222 379.864ZM634.705 375.609C638.64 374.198 642.188 372.546 645.38 370.671L646.393 372.395C643.085 374.339 639.422 376.043 635.38 377.492L634.705 375.609ZM654.771 363.589C657.64 360.82 660.071 357.761 662.11 354.436L663.815 355.481C661.69 358.946 659.154 362.138 656.16 365.028L654.771 363.589ZM667.066 343.771C668.299 340.152 669.222 336.313 669.873 332.271L671.848 332.589C671.182 336.727 670.233 340.677 668.959 344.416L667.066 343.771ZM671.01 320.411C671.159 316.551 671.123 312.553 670.928 308.431L672.925 308.336C673.123 312.507 673.16 316.563 673.009 320.488L671.01 320.411ZM669.968 296.445C669.545 292.587 669.016 288.644 668.397 284.625L670.374 284.321C670.996 288.364 671.53 292.337 671.956 296.227L669.968 296.445ZM666.376 272.812C665.652 268.929 664.865 264.989 664.03 261.002L665.987 260.592C666.825 264.591 667.615 268.546 668.342 272.446L666.376 272.812ZM661.463 249.201C660.596 245.34 659.699 241.444 658.784 237.519L660.732 237.065C661.648 240.993 662.546 244.895 663.414 248.763L661.463 249.201ZM656.032 225.795C655.113 221.9 654.19 217.983 653.275 214.054L655.223 213.6C656.138 217.527 657.06 221.441 657.978 225.337L656.032 225.795ZM650.581 202.319C649.698 198.397 648.833 194.467 647.999 190.537L649.955 190.122C650.787 194.042 651.65 197.963 652.532 201.88L650.581 202.319ZM645.595 178.726C644.826 174.763 644.101 170.806 643.43 166.862L645.402 166.527C646.069 170.453 646.792 174.395 647.558 178.345L645.595 178.726ZM641.575 154.913C641.015 150.896 640.526 146.9 640.122 142.933L642.112 142.73C642.513 146.67 642.999 150.641 643.556 154.636L641.575 154.913ZM639.167 130.929C638.938 126.842 638.818 122.794 638.82 118.795L640.82 118.796C640.818 122.755 640.937 126.764 641.163 130.817L639.167 130.929ZM639.231 106.687C639.514 102.615 639.949 98.6037 640.555 94.6649L642.531 94.9687C641.935 98.8484 641.506 102.804 641.226 106.826L639.231 106.687ZM642.966 82.8088C643.983 78.8533 645.206 74.9878 646.656 71.2242L648.522 71.9429C647.102 75.63 645.902 79.4215 644.904 83.3068L642.966 82.8088ZM651.735 60.1931C653.651 56.6641 655.811 53.2491 658.235 49.9594L659.845 51.1457C657.477 54.3597 655.366 57.6971 653.493 61.1473L651.735 60.1931ZM666.093 40.707C668.872 37.8551 671.899 35.1254 675.191 32.527L676.43 34.0969C673.205 36.6425 670.242 39.3142 667.525 42.1028L666.093 40.707ZM685.062 25.6336C688.363 23.5935 691.874 21.6595 695.607 19.8374L696.484 21.6346C692.809 23.4289 689.356 25.3311 686.113 27.335L685.062 25.6336ZM706.904 14.9314C710.472 13.5574 714.208 12.2697 718.121 11.0718L718.706 12.9842C714.837 14.169 711.144 15.4415 707.623 16.7978L706.904 14.9314ZM729.893 7.87106C733.647 6.96976 737.544 6.14108 741.587 5.38748L741.953 7.35364C737.942 8.10123 734.079 8.92288 730.359 9.81583L729.893 7.87106ZM753.635 3.42764C757.445 2.89322 761.371 2.41882 765.418 2.00626L765.621 3.99594C761.598 4.40607 757.696 4.87747 753.912 5.40826L753.635 3.42764ZM777.815 0.962738C781.596 0.708496 785.472 0.503601 789.447 0.349274L789.524 2.34775C785.568 2.50137 781.71 2.70529 777.949 2.95822L777.815 0.962738ZM801.666 0.039093C803.752 0.0130615 805.863 -3.05176e-05 808 -3.05176e-05V1.99997C805.872 1.99997 803.769 2.013 801.691 2.03894L801.666 0.039093Z" fill="#FD5956"/>
</svg>
